<?xml version="1.0" encoding="UTF-8" standalone="no"?>
<!-- Created with Inkscape (http://www.inkscape.org/) -->

<svg
   version="1.1"
   id="svg1"
   width="460"
   height="460"
   viewBox="0 0 460 460"
   sodipodi:docname="hans_im_glueck.png"
   xmlns:inkscape="http://www.inkscape.org/namespaces/inkscape"
   xmlns:sodipodi="http://sodipodi.sourceforge.net/DTD/sodipodi-0.dtd"
   xmlns:xlink="http://www.w3.org/1999/xlink"
   xmlns="http://www.w3.org/2000/svg"
   xmlns:svg="http://www.w3.org/2000/svg">
  <defs
     id="defs1" />
  <sodipodi:namedview
     id="namedview1"
     pagecolor="#ffffff"
     bordercolor="#000000"
     borderopacity="0.25"
     inkscape:showpageshadow="2"
     inkscape:pageopacity="0.0"
     inkscape:pagecheckerboard="0"
     inkscape:deskcolor="#d1d1d1" />
  <g
     inkscape:groupmode="layer"
     inkscape:label="Image"
     id="g1">
    
    <g
       id="g2">
      <path
         style="fill:#b20bfe"
         d="m 83.5,388.469 c -1.65,-1.35248 -3.535942,-2.4613 -4.190983,-2.46403 -2.710385,-0.0113 -2.327836,-2.40771 0.933102,-5.84524 4.331718,-4.56629 5.098235,-6.67652 3.137415,-8.63734 -2.786619,-2.78662 -5.800208,-3.91344 -12.342751,-4.61511 -6.43391,-0.69002 -6.495383,-0.72652 -13.556498,-8.05022 -3.901304,-4.04638 -8.980356,-8.84497 -11.286783,-10.66352 -6.435257,-5.07403 -5.68555,-7.02259 3.012804,-7.83058 6.78269,-0.63004 8.134469,-1.42009 15.796765,-9.23249 11.439697,-11.66381 27.149305,-20.50347 41.978079,-23.62072 9.20263,-1.93454 10.38105,-3.64853 9.61757,-13.98847 -1.82088,-24.66013 -1.79543,-26.75531 0.44964,-37.02128 1.2028,-5.5 2.64085,-13.15 3.19567,-17 1.66292,-11.53923 2.6532,-14.33057 6.42059,-18.09795 3.38823,-3.38824 3.83598,-3.54571 8.20953,-2.88735 2.54422,0.38299 8.11335,0.75843 12.37585,0.8343 8.3797,0.14917 9.98238,1.44025 5,4.02785 -2.46856,1.28205 -7.25,6.64152 -7.25,8.12646 0,0.32137 -2.32548,3.37709 -5.16772,6.7905 -7.99072,9.59647 -10.33776,15.45082 -10.30575,25.70619 0.0326,10.45047 3.02585,22.35388 8.42391,33.5 5.90984,12.20285 6.63067,15.4092 4.99605,22.22306 -1.39432,5.81216 -3.80928,9.39028 -15.69649,23.25667 -4.65125,5.42566 -5.25,6.63822 -5.25,10.63205 0,4.05357 -0.5174,5.05502 -5.13333,9.93568 -4.71863,4.98926 -5.09035,5.73169 -4.6012,9.19014 0.90706,6.41333 2.43198,9.15685 5.44916,9.80368 1.53195,0.32842 3.87074,1.03955 5.19731,1.58027 2.05633,0.83819 2.20377,1.17897 1,2.31139 -0.77657,0.73053 -3.74116,1.61806 -6.58798,1.97228 -4.62191,0.57509 -5.34455,0.40347 -6.75,-1.60309 -0.91836,-1.31114 -1.5801,-4.34125 -1.5887,-7.27464 -0.029,-9.89175 -3.23434,-12.05054 -13.473014,-9.07407 C 89.68897,372.14629 88,374.00975 88,378.74176 c 0,2.27905 0.953696,3.54547 4.611668,6.12384 4.334091,3.05495 4.499614,3.33548 2.75,4.6607 -2.940209,2.22702 -8.454536,1.7355 -11.861668,-1.0573 z m 124.75428,-1.719 c -1.15189,-1.2375 -2.85756,-4.17092 -3.79038,-6.51872 C 202.32962,374.85957 198.7675,372 194.21031,372 c -2.81191,0 -4.29347,-0.81311 -7.36515,-4.04211 C 184.73032,365.73473 183,363.02022 183,361.92563 c 0,-2.70164 8.42923,-15.32163 11.63804,-17.42412 2.29315,-1.50253 2.5144,-2.14672 1.94987,-5.67713 -0.54344,-3.3985 -0.13291,-4.81363 2.80051,-9.65333 1.89052,-3.11908 5.76861,-10.62105 8.61798,-16.67105 2.84938,-6.05 6.68981,-13.475 8.53429,-16.5 1.84448,-3.025 5.34627,-10.225 7.78175,-16 2.43548,-5.775 6.73426,-15.96931 9.55285,-22.65403 5.34744,-12.68227 5.86993,-14.76737 3.99133,-15.9284 -1.20994,-0.74779 -0.54429,-17.60103 1.0933,-27.68058 C 240.46043,204.50121 241.38117,179 240.21414,179 c -2.12259,0 -11.36244,13.80266 -16.73563,25 -3.03514,6.325 -5.89518,12.175 -6.35566,13 -1.30789,2.34328 -3.76495,2.32448 -6.98123,-0.0534 -1.62331,-1.20018 -3.44427,-1.87758 -4.04655,-1.50534 -0.60904,0.3764 -1.09507,3.5201 -1.09507,7.08297 0,5.64212 -0.34569,6.79991 -2.89839,9.70727 -1.7348,1.97582 -4.53705,3.73847 -6.98013,4.39056 -3.63511,0.97027 -4.45124,0.83839 -7.45869,-1.20522 C 183.82465,232.80874 181,227.62273 181,223.18404 c 0,-2.45034 0.91185,-3.68306 4.87792,-6.59442 C 192.26018,211.9046 196,206.91203 196,203.07685 c 0,-2.06848 2.46285,-7.02 7.61843,-15.31673 4.19014,-6.74306 9.75607,-16.53512 12.36874,-21.76012 7.20065,-14.40034 9.34853,-17.84531 17.76116,-28.48701 5.01225,-6.34033 5.47108,-7.43827 7.66901,-18.35144 1.35843,-6.74485 1.45585,-9.03823 0.50974,-12 -2.16151,-6.76661 -4.69686,-9.816226 -10.08955,-12.136096 -3.11714,-1.340957 -7.18006,-4.346647 -10.30022,-7.619949 C 216.61181,82.238255 216.15881,82 211.25974,82 c -4.26569,0 -5.23259,-0.339098 -5.76687,-2.022471 -0.81888,-2.58005 0.23212,-7.452 2.62917,-12.187691 C 210.18482,63.71454 210.58447,60 208.96016,60 c -2.60848,0 -9.28595,4.415891 -10.79242,7.137163 -3.2958,5.953487 -3.76365,6.303937 -8.18067,6.127798 C 185.36846,73.080784 182,70.778177 182,67.805174 c 0,-3.281741 3.73566,-9.366172 7.52516,-12.25657 2.40388,-1.833522 5.42455,-3.006505 8.81585,-3.423353 L 203.5,51.491125 203.14416,43.331276 c -0.61809,-14.173475 3.99204,-22.171484 15.41595,-26.744789 7.89422,-3.16027 14.85244,-3.339051 23.6008,-0.606387 l 6.33909,1.9801 4.35026,-3.114238 c 5.71125,-4.088531 12.44509,-5.0311278 14.08267,-1.971279 0.62182,1.161881 1.02662,3.656216 0.89955,5.542967 -0.20274,3.010472 0.62284,4.329357 6.74342,10.772737 3.83595,4.038255 7.76426,9.134931 8.72958,11.325947 3.49593,7.934838 4.2059,8.859481 7.44764,9.699498 2.8638,0.742087 3.24688,1.243956 3.24688,4.253743 0,1.876815 0.48646,3.713041 1.08103,4.080502 0.61258,0.378598 0.80412,1.771397 0.44201,3.21416 -0.39506,1.574035 -0.16523,2.838871 0.60202,3.313053 1.64504,1.016692 3.66826,9.161122 2.85308,11.485022 -0.35395,1.009031 -3.97555,3.669228 -8.04801,5.911548 -6.89378,3.795762 -7.45037,4.351072 -8.07017,8.051543 -0.63764,3.807053 -0.46262,4.153879 4.15201,8.227645 C 291.41343,102.63864 299,115.24317 299,118.6703 c 0,0.97767 5.701,5.69607 17.87328,14.79272 1.44469,1.07965 5.62031,4.32629 9.27914,7.21473 7.00939,5.53353 10.32314,6.68065 35.84758,12.40941 4.675,1.04926 9.76009,2.42285 11.3002,3.05241 2.19989,0.89927 3.35784,0.84622 5.40139,-0.24746 3.95514,-2.11672 12.27241,-1.7894 15.44637,0.60789 3.2654,2.46636 6.21907,8.53297 4.83051,9.92153 -0.53816,0.53816 -0.97847,1.7534 -0.97847,2.70055 0,0.94714 -1.881,3.33214 -4.18,5.3 -5.24453,4.48912 -8.61842,4.60251 -16.22172,0.54516 -3.12579,-1.66801 -6.06313,-2.79798 -6.52741,-2.51104 -0.46428,0.28694 -1.14055,2.10168 -1.50282,4.03275 -0.95492,5.09016 0.46611,5.29059 -31.56805,-4.45255 -9.72822,-2.95882 -15.14241,-5.2245 -19.37853,-8.10934 -3.23319,-2.20184 -6.09053,-3.79133 -6.34966,-3.5322 -0.25913,0.25912 0.0816,2.18879 0.75725,4.28814 1.80927,5.62201 21.48073,45.896 22.82253,46.72528 0.63163,0.39036 1.14841,1.82678 1.14841,3.19204 0,1.89766 -1.17761,3.21433 -5,5.59046 -2.75,1.70949 -5,3.53558 -5,4.05797 0,0.52239 1.53057,3.49262 3.40128,6.60052 1.8707,3.1079 6.79515,11.27573 10.94323,18.15073 4.14808,6.875 9.62204,14.93385 12.16437,17.90856 2.54233,2.97471 5.99807,8.14971 7.67943,11.5 1.68136,3.35029 5.37806,8.79144 8.21487,12.09144 2.83682,3.3 7.39412,8.88071 10.12734,12.40159 12.02436,15.48954 14.23724,16.99945 19.19661,13.09841 3.01286,-2.36992 5.75149,-2.52042 9.57479,-0.52621 2.64038,1.37722 3.30272,1.23011 11.48849,-2.55173 15.16599,-7.00671 18.72373,-4.00126 11.47572,9.69427 -4.64985,8.78616 -8.57499,13.30094 -14.31819,16.46906 -2.46427,1.35937 -4.58567,3.32182 -4.78665,4.42799 C 411.46067,347.36952 404.24621,353 400.00587,353 398.00757,353 386.96352,341.58936 385.28953,337.79517 384.3686,335.70783 383.36101,334 383.05046,334 c -0.31055,0 -3.03326,-2.025 -6.05046,-4.5 -3.0172,-2.475 -6.0303,-4.5 -6.69579,-4.5 -0.66548,0 -2.69367,1.8465 -4.50709,4.10334 -3.77637,4.69978 -8.17203,7.34586 -10.26095,6.17684 -0.78058,-0.43684 -5.73914,-6.97218 -11.01902,-14.52298 -6.09339,-8.71422 -15.15486,-19.68203 -24.80846,-30.02764 -8.36478,-8.96439 -18.34902,-19.77079 -22.18719,-24.01423 -3.83818,-4.24343 -7.66318,-7.68959 -8.5,-7.65813 -1.56787,0.0589 -5.02696,3.91399 -17.44582,19.4428 -9.91634,12.3996 -13.45517,17.78176 -15.31113,23.28645 -0.87407,2.59245 -2.30367,5.7989 -3.17688,7.12544 -0.87322,1.32655 -5.48629,9.86026 -10.25126,18.96382 -4.76497,9.10355 -9.71497,17.83582 -11,19.40504 l -2.33641,2.85312 -6.18677,-1.4635 c -3.40273,-0.80492 -6.44023,-1.21004 -6.75,-0.90027 -1.37559,1.3756 -0.35655,4.36695 1.8265,5.36161 4.20695,1.91681 5.84086,7.85905 3.14207,11.42716 -0.8075,1.06762 -1.4825,3.56029 -1.5,5.53926 -0.0288,3.25258 0.35931,3.77449 4.04086,5.43463 4.95054,2.23239 7.92734,5.7979 7.92734,9.49511 0,3.57488 -1.24088,3.97213 -12.40747,3.97213 -8.29905,0 -9.45797,-0.22998 -11.33825,-2.25 z"
         id="path3" />
      <path
         style="fill:#0606fe"
         d="m 212.5,388.27639 c -3.16081,-0.77694 -4.5504,-2.33332 -6.97187,-7.8087 C 202.75712,374.20193 198.93722,371 194.23322,371 c -2.71451,0 -4.25075,-0.79914 -6.86514,-3.5712 C 185.51563,365.46464 184,362.96777 184,361.8802 c 0,-2.64415 7.41992,-13.77676 11.18032,-16.77459 2.7181,-2.1669 2.94477,-2.78576 2.38576,-6.51352 -0.52633,-3.50984 -0.14817,-4.85672 2.55657,-9.10561 C 202.92914,325.07774 213,304.79001 213,303.54507 c 0,-0.26267 1.78521,-3.23965 3.96713,-6.61551 2.18192,-3.37585 4.91601,-8.67854 6.07575,-11.78374 1.15974,-3.1052 2.73121,-6.99582 3.49216,-8.64582 3.95737,-8.58098 13.46073,-31.80124 13.43316,-32.82225 -0.0175,-0.64776 -0.71257,-2.07775 -1.54462,-3.17775 -0.99328,-1.31317 -1.32718,-3.20195 -0.97228,-5.5 0.75802,-4.90831 3.30528,-33.40814 4.12143,-46.11234 0.44649,-6.95005 0.32517,-10.83273 -0.35155,-11.25097 -1.75829,-1.08668 -14.53513,15.79846 -17.14111,22.6527 C 221.20796,207.84362 215.6025,218 214.30531,218 c -0.81942,0 -2.63402,-0.9 -4.03244,-2 -1.39842,-1.1 -3.14833,-2 -3.88868,-2 -1.73675,0 -2.78848,4.22853 -2.01439,8.09898 0.68301,3.41505 -1.16517,8.65889 -3.83106,10.86988 -0.97409,0.80787 -3.36882,2.01813 -5.32161,2.68947 -2.93378,1.00858 -4.05165,0.96148 -6.43528,-0.27114 -1.58661,-0.82047 -3.15499,-2.25573 -3.4853,-3.18948 -0.3303,-0.93374 -1.19293,-2.39243 -1.91696,-3.24154 -0.72402,-0.84911 -1.42982,-3.03237 -1.56845,-4.85169 -0.20452,-2.68408 0.3081,-3.69927 2.7184,-5.38347 1.63375,-1.14159 5.1459,-4.33739 7.80477,-7.10177 3.94426,-4.1008 4.73703,-5.51255 4.30594,-7.668 -0.41037,-2.05182 0.99157,-5.0772 6.27734,-13.54653 3.74314,-5.99759 9.26949,-15.64919 12.28077,-21.44801 7.94891,-15.30717 10.53715,-19.60361 16.74263,-27.7925 3.05745,-4.0347 6.08915,-8.0847 6.7371,-9 1.50185,-2.12157 4.71722,-16.54917 4.72905,-21.21966 0.005,-1.9555 -1.13626,-5.7805 -2.53603,-8.5 -2.09557,-4.071329 -3.52111,-5.417229 -8.07206,-7.621134 -3.14513,-1.5231 -7.84816,-5.108769 -10.91304,-8.320275 -5.18507,-5.433126 -5.541,-5.623608 -9.54033,-5.105651 -2.95986,0.383334 -4.50584,0.11446 -5.37694,-0.935144 -1.60501,-1.933924 -0.56081,-8.443019 2.03831,-12.705909 2.31884,-3.803195 2.58623,-7.591532 0.5899,-8.357597 -1.69424,-0.650142 -8.46702,2.665245 -10.71416,5.24476 C 197.99333,65.664616 196.64,67.85 195.8754,69.5 c -1.54615,3.33659 -4.76565,4.252624 -9.12334,2.595834 -4.28886,-1.630622 -4.94748,-4.081368 -2.43797,-9.071825 2.98346,-5.933 8.45225,-9.72596 15.24718,-10.574932 2.9913,-0.373738 5.43873,-1.043343 5.43873,-1.48801 0,-0.444668 -0.50339,-2.989305 -1.11865,-5.654749 -2.63919,-11.433595 3.27623,-22.944794 14.2328,-27.696524 7.05029,-3.057624 17.38788,-3.551459 23.23161,-1.109794 4.63899,1.938296 9.06823,1.911024 10.70896,-0.06594 3.4468,-4.153134 13.10207,-6.073829 14.33829,-2.852276 0.33385,0.869984 0.60699,3.499542 0.60699,5.843464 0,3.883278 0.44246,4.63476 4.98312,8.463507 5.7931,4.884808 9.98664,10.697048 12.46689,17.279054 1.3227,3.510165 2.41365,4.832137 4.39887,5.330394 3.72602,0.935172 5.0251,2.267691 4.42986,4.543888 -0.28313,1.082707 0.008,2.598118 0.6463,3.367579 0.6403,0.771521 0.87977,2.519841 0.5339,3.897907 -0.40635,1.619015 -0.13973,2.797038 0.7572,3.345653 1.7681,1.081473 4.11012,8.997125 3.14137,10.617337 -1.08558,1.815611 -4.26049,3.938904 -9.61632,6.431153 -3.06068,1.424236 -5.11251,3.144721 -5.75,4.821455 C 281.72262,90.859758 281.70579,97 282.9652,97 c 3.51362,0 11.77417,11.91741 15.279,22.04285 0.29373,0.84857 3.17144,3.54774 6.39492,5.99815 3.22349,2.45042 10.82507,8.32336 16.89242,13.05099 l 11.03153,8.59569 19.46847,4.67334 c 10.70765,2.57034 20.45643,5.17853 21.66395,5.79597 1.72026,0.87962 2.9435,0.76767 5.65113,-0.51718 4.78371,-2.27002 10.79311,-2.10434 13.95757,0.38483 3.3812,2.65965 6.06987,8.0013 4.71124,9.35993 -0.55849,0.55849 -1.01543,1.7015 -1.01543,2.54003 0,0.83853 -1.65674,2.99853 -3.68165,4.8 -4.64809,4.13519 -7.94687,4.19982 -15.76064,0.30878 -6.51602,-3.24479 -8.20647,-2.89895 -8.74835,1.7898 -0.28051,2.42718 -0.68862,2.67003 -4.37604,2.60406 -2.23667,-0.04 -8.31167,-1.45174 -13.5,-3.13716 C 345.745,173.60466 338.125,171.20301 334,169.95307 c -9.06026,-2.7454 -13.26237,-4.7674 -18.36912,-8.83901 -2.12802,-1.69667 -4.25428,-2.84681 -4.72501,-2.55588 -1.71171,1.05789 11.31934,30.33867 21.43174,48.15713 2.56432,4.51842 4.66239,8.46151 4.66239,8.76242 0,0.30091 -2.475,2.13035 -5.5,4.06542 -3.025,1.93507 -5.5,3.75183 -5.5,4.03724 0,1.06495 3.52329,7.33964 12.30802,21.91961 8.57231,14.2274 12.31189,19.65474 17.43475,25.30345 1.23352,1.36014 3.42972,4.98202 4.88046,8.04861 1.45073,3.0666 6.77093,10.5419 11.82266,16.61179 5.05173,6.06988 10.05552,12.36915 11.11954,13.99837 2.96578,4.54122 8.69498,9.48057 11.03156,9.51072 1.15334,0.0149 3.1347,-0.87294 4.40301,-1.97294 2.76206,-2.39552 6.7332,-2.5756 9.77736,-0.44339 1.94194,1.36019 2.56942,1.37827 4.97251,0.14327 9.69357,-4.9817 16.66018,-7.70451 18.34479,-7.16984 2.93329,0.93099 2.37024,5.43123 -1.64494,13.1473 -4.00056,7.68796 -9.49045,13.92389 -13.94972,15.84536 -1.71439,0.73872 -3.85707,2.92453 -5,5.10062 -2.19046,4.17057 -7.62895,8.37668 -10.83103,8.37668 -2.6469,0 -13.0828,-10.66133 -15.05408,-15.37927 C 384.78283,334.62933 383.7384,333 383.29393,333 c -0.44446,0 -3.27673,-2.025 -6.29393,-4.5 -3.0172,-2.475 -6.02911,-4.5 -6.69314,-4.5 -0.66402,0 -2.86111,1.97846 -4.8824,4.39658 -3.85737,4.61465 -7.53907,6.90952 -9.66261,6.02289 C 355.06783,334.1297 350.45,328.00566 345.5,320.81049 339.65491,312.31426 331.06654,301.88983 321,291.0728 c -8.525,-9.16057 -18.84841,-20.34946 -22.94092,-24.86419 -4.09251,-4.51474 -8.14251,-8.19637 -9,-8.18142 -1.53571,0.0268 -9.22719,8.60326 -20.10981,22.42366 -8.55069,10.85897 -11.92465,16.14949 -13.37727,20.97619 -0.73297,2.43546 -2.22149,5.6982 -3.30781,7.25054 -1.08633,1.55233 -5.75268,10.14529 -10.36967,19.09547 -4.61699,8.95017 -9.31654,17.44019 -10.44345,18.86671 -2.01452,2.55011 -2.14324,2.57256 -7.66417,1.33703 -3.08839,-0.69115 -6.32887,-0.98279 -7.20107,-0.6481 -2.65845,1.02014 -1.77805,4.28732 1.91417,7.10351 3.86642,2.94906 4.61997,6.70481 2.0318,10.12667 -0.8075,1.06762 -1.4825,3.62105 -1.5,5.67428 -0.0297,3.48242 0.30161,3.90211 4.93229,6.24866 2.73026,1.38352 5.43026,3.38652 6,4.4511 1.80193,3.36692 1.22448,6.0449 -1.52919,7.09184 -2.60919,0.99201 -12.30024,1.14505 -15.9349,0.25164 z"
         id="path2" />
    </g>
  </g>
</svg>
